<svg width="136" height="136" viewBox="0 0 136 136" fill="none" xmlns="http://www.w3.org/2000/svg">
<path d="M68.0003 85L85.0003 68M85.0003 68L68.0003 51M85.0003 68H22.667M51.0003 41.0753V40.8011C51.0003 34.4538 51.0003 31.2779 52.2356 28.8535C53.3221 26.721 55.0547 24.9885 57.1872 23.9019C59.6114 22.6667 62.7876 22.6667 69.1348 22.6667H95.2014C101.549 22.6667 104.718 22.6667 107.142 23.9019C109.275 24.9885 111.013 26.721 112.099 28.8535C113.334 31.2755 113.334 34.4476 113.334 40.7825V95.2204C113.334 101.555 113.334 104.723 112.099 107.145C111.013 109.277 109.275 111.013 107.142 112.099C104.72 113.333 101.553 113.333 95.2179 113.333H69.1161C62.7813 113.333 59.6091 113.333 57.1872 112.099C55.0547 111.013 53.3221 109.275 52.2356 107.143C51.0003 104.719 51.0003 101.547 51.0003 95.2V94.9167" stroke="#E12020" stroke-width="11.3333" stroke-linecap="round" stroke-linejoin="round"/>
</svg>
